<?xml version="1.0" encoding="UTF-8" standalone="no"?>
<svg width="128px" height="128px" viewBox="0 0 128 128" version="1.1" xmlns="http://www.w3.org/2000/svg" xmlns:xlink="http://www.w3.org/1999/xlink" xmlns:sketch="http://www.bohemiancoding.com/sketch/ns">
    <!-- Generator: Sketch 3.3 (11970) - http://www.bohemiancoding.com/sketch -->
    <title>128 copy 2</title>
    <desc>Created with Sketch.</desc>
    <defs></defs>
    <g id="Page-1" stroke="none" stroke-width="1" fill="none" fill-rule="evenodd" sketch:type="MSPage">
        <g id="128-copy-2" sketch:type="MSArtboardGroup">
            <g id="base-icon-back" sketch:type="MSLayerGroup" transform="translate(29.000000, 29.000000)">
                <rect id="Rectangle-96" fill="#FFFFFF" sketch:type="MSShapeGroup" x="0" y="0" width="70" height="70" rx="40"></rect>
                <rect id="Rectangle-97" fill="#F91111" sketch:type="MSShapeGroup" x="3" y="3" width="64" height="64" rx="40"></rect>
                <path d="M50.3006263,27.9561587 C50.3006263,29.4906054 49.0436952,30.7473904 47.5092484,30.7473904 C45.9748017,30.7473904 44.7180167,29.4906054 44.7180167,27.9561587 C44.7180167,26.4217119 45.9748017,25.1649269 47.5092484,25.1649269 C49.0436952,25.1649269 50.3006263,26.4217119 50.3006263,27.9561587 L50.3006263,27.9561587 Z M50.1398747,18.9979123 L48.5762004,16.6889353 L39.3110647,22.9436326 L40.874739,25.2526096 L50.1398747,18.9979123 L50.1398747,18.9979123 Z M30.5574113,22.9290188 L21.2922756,16.6743215 L19.7286013,18.9832985 L28.993737,25.2379958 L30.5574113,22.9290188 L30.5574113,22.9290188 Z M53.1064718,48.9123173 C53.1064718,52.82881 50.0375783,55.8977035 46.1209395,55.8977035 L23.761858,55.8977035 C19.8453653,55.8977035 16.7764718,52.82881 16.7764718,48.9123173 C16.7764718,44.9958246 19.8453653,41.9269311 23.761858,41.9269311 L46.1209395,41.9269311 C50.0229645,41.9269311 53.1064718,44.9958246 53.1064718,48.9123173 L53.1064718,48.9123173 Z M25.1356994,50.3152401 L19.8308977,50.3152401 C20.4008351,51.9958246 21.7891441,53.106618 23.7473904,53.106618 L25.1356994,53.106618 L25.1356994,50.3152401 L25.1356994,50.3152401 Z M25.1649269,44.7181628 L23.7620042,44.7181628 C22.0814196,44.7181628 20.4008351,45.82881 19.8455115,47.5093946 L25.1503132,47.5093946 L25.1649269,47.5093946 L25.1649269,44.7181628 L25.1649269,44.7181628 Z M33.5386221,50.3152401 L27.9561587,50.3152401 L27.9561587,53.1064718 L33.5386221,53.1064718 L33.5386221,50.3152401 L33.5386221,50.3152401 Z M33.5386221,44.7181628 L27.9561587,44.7181628 L27.9561587,47.5093946 L33.5386221,47.5093946 L33.5386221,44.7181628 L33.5386221,44.7181628 Z M41.9269311,50.3152401 L36.3444676,50.3152401 L36.3444676,53.1064718 L41.9269311,53.1064718 L41.9269311,50.3152401 L41.9269311,50.3152401 Z M41.9269311,44.7181628 L36.3444676,44.7181628 L36.3444676,47.5093946 L41.9269311,47.5093946 L41.9269311,44.7181628 L41.9269311,44.7181628 Z M50.0229645,50.3152401 L44.7181628,50.3152401 L44.7181628,53.1064718 L46.1210856,53.1064718 C48.0793319,53.1064718 49.4676409,51.9812109 50.0229645,50.3152401 L50.0229645,50.3152401 Z M50.0375783,47.5093946 C49.4822547,45.82881 48.0793319,44.7181628 46.1210856,44.7181628 L44.7327766,44.7181628 L44.7327766,47.5093946 L50.0375783,47.5093946 L50.0375783,47.5093946 Z M22.3590814,30.7473904 C23.8935282,30.7473904 25.1503132,29.4906054 25.1503132,27.9561587 C25.1503132,26.4217119 23.8935282,25.1649269 22.3590814,25.1649269 C20.8246347,25.1649269 19.5678497,26.4217119 19.5678497,27.9561587 C19.5678497,29.4906054 20.8246347,30.7473904 22.3590814,30.7473904 L22.3590814,30.7473904 Z M69.8830898,34.9415449 C69.8830898,54.2317328 54.2317328,69.8830898 34.9415449,69.8830898 C15.651357,69.8830898 0,54.2317328 0,34.9415449 C0,15.651357 15.651357,0 34.9415449,0 C54.217119,0 69.8830898,15.651357 69.8830898,34.9415449 L69.8830898,34.9415449 Z M67.0772443,34.9415449 C67.0772443,17.0542797 52.82881,2.80584551 34.9415449,2.80584551 C17.0542797,2.80584551 2.80584551,17.0542797 2.80584551,34.9415449 C2.80584551,52.82881 17.0542797,67.0772443 34.9415449,67.0772443 C52.82881,67.0772443 67.0772443,52.82881 67.0772443,34.9415449 L67.0772443,34.9415449 Z" id="Shape" fill="#FFFFFF" sketch:type="MSShapeGroup"></path>
            </g>
        </g>
    </g>
</svg>