<?xml version="1.0" encoding="UTF-8" standalone="no"?>
<svg width="128px" height="128px" viewBox="0 0 128 128" version="1.1" xmlns="http://www.w3.org/2000/svg" xmlns:xlink="http://www.w3.org/1999/xlink" xmlns:sketch="http://www.bohemiancoding.com/sketch/ns">
    <!-- Generator: Sketch 3.3 (11970) - http://www.bohemiancoding.com/sketch -->
    <title>128 copy</title>
    <desc>Created with Sketch.</desc>
    <defs></defs>
    <g id="Page-1" stroke="none" stroke-width="1" fill="none" fill-rule="evenodd" sketch:type="MSPage">
        <g id="128-copy" sketch:type="MSArtboardGroup">
            <g id="base-icon-back" sketch:type="MSLayerGroup" transform="translate(29.000000, 29.000000)">
                <rect id="Rectangle-96" fill="#FFFFFF" sketch:type="MSShapeGroup" x="0" y="0" width="70" height="70" rx="40"></rect>
                <rect id="Rectangle-97" fill="#3B6EBE" sketch:type="MSShapeGroup" x="3" y="3" width="64" height="64" rx="40"></rect>
            </g>
            <path d="M48.5678497,56.9561587 C48.5678497,55.4217119 49.8246347,54.1649269 51.3590814,54.1649269 C52.8935282,54.1649269 54.1503132,55.4217119 54.1503132,56.9561587 C54.1503132,58.4906054 52.8935282,59.7473904 51.3590814,59.7473904 C49.8246347,59.7473904 48.5678497,58.4906054 48.5678497,56.9561587 L48.5678497,56.9561587 Z M98.8830898,63.9415449 C98.8830898,83.2317328 83.2317328,98.8830898 63.9415449,98.8830898 C44.651357,98.8830898 29,83.2317328 29,63.9415449 C29,44.651357 44.651357,29 63.9415449,29 C83.217119,29 98.8830898,44.651357 98.8830898,63.9415449 L98.8830898,63.9415449 Z M96.0772443,63.9415449 C96.0772443,46.0542797 81.82881,31.8058455 63.9415449,31.8058455 C46.0542797,31.8058455 31.8058455,46.0542797 31.8058455,63.9415449 C31.8058455,81.82881 46.0542797,96.0772443 63.9415449,96.0772443 C81.82881,96.0772443 96.0772443,81.82881 96.0772443,63.9415449 L96.0772443,63.9415449 Z M76.5093946,59.7473904 C78.0438413,59.7473904 79.3007724,58.4906054 79.3007724,56.9561587 C79.3007724,55.4217119 78.0438413,54.1649269 76.5093946,54.1649269 C74.9749478,54.1649269 73.7181628,55.4217119 73.7181628,56.9561587 C73.7181628,58.4906054 74.9749478,59.7473904 76.5093946,59.7473904 L76.5093946,59.7473904 Z M48.5678497,79.3152401 L48.5678497,82.1064718 C48.5678497,82.1064718 54.1503132,76.5240084 63.9415449,76.5240084 C73.7327766,76.5240084 79.3152401,82.1064718 79.3152401,82.1064718 L79.3152401,79.3152401 C79.3152401,79.3152401 73.7327766,73.7327766 63.9415449,73.7327766 C54.1503132,73.7327766 48.5678497,79.3152401 48.5678497,79.3152401 L48.5678497,79.3152401 Z" id="Shape" fill="#FFFFFF" sketch:type="MSShapeGroup"></path>
        </g>
    </g>
</svg>